<?xml version="1.0" encoding="UTF-8" standalone="no"?><!-- Created with Inkscape (http://www.inkscape.org/) -->

<svg xmlns:dc="http://purl.org/dc/elements/1.1/" xmlns:cc="http://creativecommons.org/ns#"
    xmlns:rdf="http://www.w3.org/1999/02/22-rdf-syntax-ns#" xmlns="http://www.w3.org/2000/svg"
    xmlns:sodipodi="http://sodipodi.sourceforge.net/DTD/sodipodi-0.dtd"
    xmlns:inkscape="http://www.inkscape.org/namespaces/inkscape" width="789.61371"
    height="563.48126" viewBox="0 0 208.92 149.08775" version="1.1" id="svg46"
    inkscape:version="0.92.4 (5da689c313, 2019-01-14)" sodipodi:docname="icon_launcher.svg">
    <defs id="defs40" />
    <sodipodi:namedview id="base" pagecolor="#ffffff" bordercolor="#666666" borderopacity="1.0"
        inkscape:pageopacity="0.0" inkscape:pageshadow="2" inkscape:zoom="0.7"
        inkscape:cx="482.15229" inkscape:cy="366.55121" inkscape:document-units="mm"
        inkscape:current-layer="g8464" showgrid="true" inkscape:snap-grids="true"
        inkscape:window-width="1920" inkscape:window-height="1001" inkscape:window-x="-9"
        inkscape:window-y="-9" inkscape:window-maximized="1" fit-margin-top="1" fit-margin-left="1"
        fit-margin-right="1" fit-margin-bottom="1" units="px">
        <inkscape:grid originy="-101.19473" originx="-0.75618517" id="grid8345" type="xygrid" />
    </sodipodi:namedview>
    <metadata id="metadata43">
        <rdf:RDF>
            <cc:Work rdf:about="">
                <dc:format>image/svg+xml</dc:format>
                <dc:type rdf:resource="http://purl.org/dc/dcmitype/StillImage" />
                <dc:title />
            </cc:Work>
        </rdf:RDF>
    </metadata>
    <g inkscape:label="Calque 1" inkscape:groupmode="layer" id="layer1"
        transform="translate(-0.7561852,-46.717522)">
        <path style="fill:#000000;stroke-width:1.07959449" d="" id="path8341"
            inkscape:connector-curvature="0" />
        <g id="g8499">
            <g id="g8481">
                <g id="g8464">
                    <g id="g8448">
                        <g id="g8433">
                            <path inkscape:connector-curvature="0"
                                style="fill:#2496ED;stroke-width:1.43645203;opacity:1"
                                d="M 48.987384,193.08612 C 21.394697,186.09228 3.7606554,165.88179 2.3780301,139.66683 L 1.7561852,127.87668 76.987765,127.457 c 67.923575,-0.37892 75.770055,-0.66314 80.774965,-2.92567 4.36068,-1.97131 5.31592,-3.04394 4.47729,-5.02757 -4.51674,-10.68362 -4.25738,-20.550822 0.75618,-28.77044 2.78924,-4.572869 2.96545,-4.638212 6.41403,-2.378613 4.31901,2.829924 12.25638,14.508063 12.25638,18.032633 0,2.2082 0.93525,2.44855 6.82314,1.75352 7.84606,-0.92618 18.81648,1.57809 19.95931,4.55622 2.23402,5.82178 -12.60077,16.49489 -22.92662,16.49489 -6.31966,0 -8.4913,2.06416 -15.31491,14.55665 -6.86409,12.56665 -25.26878,30.62704 -38.13263,37.41924 -16.99528,8.97362 -32.871485,12.8502 -55.269301,13.4954 -14.020767,0.40387 -21.726008,-0.033 -27.818215,-1.57714 z"
                                id="path8419" />
                            <path inkscape:connector-curvature="0"
                                style="fill:#ffffff;stroke-width:1.43645203;opacity:1"
                                d="m 51.308578,163.44643 c 5.976342,-7.0628 1.032865,-17.5916 -8.259601,-17.5916 -6.562714,0 -10.773392,4.41042 -10.773392,11.28447 0,9.77157 12.57534,13.93877 19.032993,6.30713 z"
                                id="path8417" />
                            <path inkscape:connector-curvature="0"
                                style="fill:#2496ED;stroke-width:1.43645203;opacity:1"
                                d="M 13.601706,110.51811 V 100.46294 H 24.375098 35.14849 v 10.05517 10.05516 H 24.375098 13.601706 Z"
                                id="path8413" />
                            <path inkscape:connector-curvature="0"
                                style="fill:#2496ED;stroke-width:1.43645203;opacity:1"
                                d="m 39.457855,110.51811 v -10.05517 h 10.773392 10.773379 v 10.05517 10.05516 H 50.231247 39.457855 Z"
                                id="path8411" />
                            <path inkscape:connector-curvature="0"
                                style="fill:#2496ED;stroke-width:1.43645203;opacity:1"
                                d="m 65.313991,110.51811 v -10.05517 h 10.773392 10.773392 v 10.05517 10.05516 H 76.087383 65.313991 Z"
                                id="path8409" />
                            <path inkscape:connector-curvature="0"
                                style="fill:#2496ED;stroke-width:1.43645203;opacity:1"
                                d="m 91.170126,110.51811 v -10.05517 h 10.773394 10.7734 v 10.05517 10.05516 h -10.7734 -10.773394 z"
                                id="path8407" />
                            <path inkscape:connector-curvature="0"
                                style="fill:#2496ED;stroke-width:1.43645203;opacity:1"
                                d="m 117.02626,110.51811 v -10.05517 h 10.7734 10.77339 v 10.05517 10.05516 h -10.77339 -10.7734 z"
                                id="path8405" />
                            <path inkscape:connector-curvature="0"
                                style="fill:#2496ED;stroke-width:1.43645203;opacity:1"
                                d="M 39.457855,84.661971 V 74.606805 H 50.231247 61.004626 V 84.661971 94.717134 H 50.231247 39.457855 Z"
                                id="path8403" />
                            <path inkscape:connector-curvature="0"
                                style="fill:#2496ED;stroke-width:1.43645203;opacity:1"
                                d="M 65.313991,84.661971 V 74.606805 H 76.087383 86.860775 V 84.661971 94.717134 H 76.087383 65.313991 Z"
                                id="path8401" />
                            <path inkscape:connector-curvature="0"
                                style="fill:#2496ED;stroke-width:1.43645203;opacity:1"
                                d="M 91.170126,84.661971 V 74.606805 h 10.773394 10.7734 v 10.055166 10.055163 h -10.7734 -10.773394 z"
                                id="path8399" />
                            <path inkscape:connector-curvature="0"
                                style="fill:#2496ED;stroke-width:1.43645203;opacity:1"
                                d="m 91.359189,47.83199 c 6.942855,-0.281363 14.414881,0.166892 21.357731,-0.114468 v 9.588927 10.118095 H 101.87788 91.23932 C 91.522472,60.96051 91.076018,54.296024 91.359189,47.83199 Z"
                                id="path8343" />
                            <circle
                                style="fill:#2496ED;fill-opacity:1;stroke-width:0.28820685;opacity:1"
                                id="path8347" cx="42.805801" cy="156.48735" r="5.7641368" />
                        </g>
                    </g>
                </g>
            </g>
        </g>
    </g>
</svg>
